<svg xmlns="http://www.w3.org/2000/svg" viewBox="0 0 16 16" shape-rendering="crispEdges">
  <rect width="16" height="16" fill="none"/>
  <rect x="4" y="2" width="2" height="2" fill="#1b1f2b"/>
  <rect x="10" y="2" width="2" height="2" fill="#1b1f2b"/>
  <rect x="3" y="4" width="10" height="7" fill="#f5d547"/>
  <rect x="2" y="5" width="1" height="4" fill="#f5d547"/>
  <rect x="13" y="5" width="1" height="4" fill="#f5d547"/>
  <rect x="5" y="11" width="6" height="2" fill="#f5d547"/>
  <rect x="6" y="6" width="1" height="1" fill="#1f2430"/>
  <rect x="9" y="6" width="1" height="1" fill="#1f2430"/>
  <rect x="6" y="8" width="4" height="1" fill="#ef7f4d"/>
  <rect x="1" y="1" width="3" height="2" fill="#1b1f2b"/>
  <rect x="12" y="1" width="3" height="2" fill="#1b1f2b"/>
  <rect x="2" y="2" width="2" height="2" fill="#f5d547"/>
  <rect x="12" y="2" width="2" height="2" fill="#f5d547"/>
  <rect x="3" y="12" width="2" height="3" fill="#f5d547"/>
  <rect x="11" y="12" width="2" height="3" fill="#f5d547"/>
  <rect x="13" y="10" width="1" height="1" fill="#9b6b2a"/>
  <rect x="14" y="11" width="1" height="1" fill="#9b6b2a"/>
  <rect x="12" y="10" width="1" height="1" fill="#f3a04d"/>
  <rect x="13" y="11" width="1" height="1" fill="#f3a04d"/>
</svg>
